HIERARCHY
ROOT Hips
{
 OFFSET 0.000000 0.000000 0.000000
 CHANNELS 6 Xposition Yposition Zposition Yrotation Xrotation Zrotation
 JOINT Chest
 {
  OFFSET 0.000000 9.585900 0.002600
  CHANNELS 3 Yrotation Xrotation Zrotation
  JOINT Chest2
  {
   OFFSET 0.000000 9.601200 -0.005300
   CHANNELS 3 Yrotation Xrotation Zrotation
   JOINT Chest3
   {
    OFFSET 0.000000 9.561800 0.000000
    CHANNELS 3 Yrotation Xrotation Zrotation
    JOINT Chest4
    {
     OFFSET 0.000000 9.552100 0.000000
     CHANNELS 3 Yrotation Xrotation Zrotation
     JOINT Neck
     {
      OFFSET 0.000000 14.453000 0.000000
      CHANNELS 3 Yrotation Xrotation Zrotation
      JOINT Head
      {
       OFFSET 0.000000 8.936500 -0.011300
       CHANNELS 3 Yrotation Xrotation Zrotation
       End Site
       {
        OFFSET 0.000000 17.073600 -0.006000
       }
      }
     }
     JOINT RightCollar
     {
      OFFSET -2.921100 9.558500 0.000000
      CHANNELS 3 Yrotation Xrotation Zrotation
      JOINT RightShoulder
      {
       OFFSET -13.519700 0.000000 0.000000
       CHANNELS 3 Yrotation Xrotation Zrotation
       JOINT RightElbow
       {
        OFFSET 0.000000 -29.696600 0.000000
        CHANNELS 3 Yrotation Xrotation Zrotation
        JOINT RightWrist
        {
         OFFSET 0.000000 -24.004700 0.000000
         CHANNELS 3 Yrotation Xrotation Zrotation
         End Site
         {
          OFFSET 0.000000 -17.728500 0.000000
         }
        }
       }
      }
     }
     JOINT LeftCollar
     {
      OFFSET 2.921100 9.558500 0.000000
      CHANNELS 3 Yrotation Xrotation Zrotation
      JOINT LeftShoulder
      {
       OFFSET 13.519700 0.000000 0.000000
       CHANNELS 3 Yrotation Xrotation Zrotation
       JOINT LeftElbow
       {
        OFFSET 0.000000 -29.696600 0.000000
        CHANNELS 3 Yrotation Xrotation Zrotation
        JOINT LeftWrist
        {
         OFFSET 0.000000 -24.004700 0.000000
         CHANNELS 3 Yrotation Xrotation Zrotation
         End Site
         {
          OFFSET 0.000000 -17.728500 0.000000
         }
        }
       }
      }
     }
    }
   }
  }
 }
 JOINT RightHip
 {
  OFFSET -7.771700 -0.012900 -0.001300
  CHANNELS 3 Yrotation Xrotation Zrotation
  JOINT RightKnee
  {
   OFFSET 0.000000 -40.869800 0.001200
   CHANNELS 3 Yrotation Xrotation Zrotation
   JOINT RightAnkle
   {
    OFFSET 0.000000 -39.717900 0.002100
    CHANNELS 3 Yrotation Xrotation Zrotation
    JOINT RightToe
    {
     OFFSET 0.000000 -4.965400 11.033500
     CHANNELS 3 Yrotation Xrotation Zrotation
     End Site
     {
      OFFSET 0.000000 -1.423100 5.872300
     }
    }
   }
  }
 }
 JOINT LeftHip
 {
  OFFSET 7.771700 -0.012900 -0.001300
  CHANNELS 3 Yrotation Xrotation Zrotation
  JOINT LeftKnee
  {
   OFFSET 0.000000 -40.869800 0.001200
   CHANNELS 3 Yrotation Xrotation Zrotation
   JOINT LeftAnkle
   {
    OFFSET 0.000000 -39.717900 0.002100
    CHANNELS 3 Yrotation Xrotation Zrotation
    JOINT LeftToe
    {
     OFFSET 0.000000 -4.965400 11.033500
     CHANNELS 3 Yrotation Xrotation Zrotation
     End Site
     {
      OFFSET 0.000000 -1.423100 5.872300
     }
    }
   }
  }
 }
}
MOTION
Frames: 11
Frame Time: 0.008333
-44.985613 62.072271 13.452044 176.800367 -52.368229 -0.578662 4.114516 27.147222 0.804659 0.645235 4.663322 0.116830 0.977082 7.405580 0.171313 3.155221 21.971879 0.973831 0.972834 14.859121 2.347454 1.064244 -8.268711 4.055696 6.467148 3.960386 5.861748 6.204162 -18.941325 -17.467103 -78.160800 -67.466599 117.318640 22.947652 11.651791 16.972677 -10.120244 2.223355 -0.705996 -4.406569 -10.690236 16.527303 146.881797 -71.077482 -161.276849 12.271963 -3.223933 31.954758 3.270590 -14.538281 -5.997052 -0.457424 61.325118 -4.276456 1.428665 -8.941248 10.095663 0.166805 -0.405405 0.091909 -3.213946 -11.802746 2.225826 25.598439 76.561642 26.069077 0.433530 -11.696070 -3.570501 0.222905 0.614929 0.106914
-44.984425 62.072199 13.452838 176.798486 -52.363761 -0.586452 4.094901 27.152265 0.787501 0.644617 4.665317 0.112897 0.988050 7.399845 0.177767 3.063108 21.992517 0.914986 1.049567 14.850220 2.360210 1.070306 -8.240105 4.044131 6.450850 3.988804 5.807063 5.712762 -18.775525 -17.238611 -79.221593 -67.706237 118.189911 22.882769 11.599755 16.486292 -10.080354 2.215177 -0.702965 -4.383027 -10.579154 16.549350 147.087029 -71.142235 -161.475373 12.195339 -3.122104 31.768322 3.270367 -14.542872 -5.987610 -0.445297 61.323264 -4.263593 1.426215 -8.937529 10.095206 0.167266 -0.406714 0.087781 -3.210122 -11.808810 2.234243 25.592151 76.567094 26.068822 0.444095 -11.696815 -3.571731 0.216379 0.613324 0.104175
-44.979563 62.071953 13.453833 176.796354 -52.358630 -0.615961 4.083386 27.153428 0.795629 0.645799 4.666534 0.106613 0.983659 7.399056 0.173373 3.041239 21.994429 0.901293 1.097361 14.844608 2.365199 1.039634 -8.163286 4.000225 6.389387 4.035613 5.740047 5.235948 -18.608100 -17.016047 -80.279298 -67.931575 119.050377 22.815268 11.547954 16.014231 -10.128320 2.220196 -0.736796 -4.319068 -10.467341 16.586703 147.294679 -71.207324 -161.677681 12.108827 -3.022179 31.580167 3.267076 -14.550473 -5.956225 -0.435582 61.322094 -4.252031 1.443985 -8.936135 10.103133 0.145470 -0.409007 0.074708 -3.213223 -11.814489 2.265586 25.596359 76.572212 26.078115 0.470341 -11.681047 -3.567491 0.191082 0.596466 0.091326
-44.978128 62.071354 13.454670 176.790651 -52.351975 -0.622365 4.077326 27.149712 0.794369 0.627209 4.671928 0.097758 0.978030 7.399645 0.168103 3.023344 21.997682 0.882345 1.108573 14.854921 2.357606 1.075422 -8.146698 3.975696 6.334472 4.082869 5.675419 4.773497 -18.440007 -16.799312 -81.310067 -68.133173 119.883336 22.745673 11.498831 15.559214 -10.085676 2.210574 -0.732446 -4.338710 -10.343721 16.588084 147.501530 -71.272759 -161.878511 12.015581 -2.927390 31.393920 3.268660 -14.558401 -5.949345 -0.439723 61.319809 -4.248257 1.454544 -8.929748 10.101767 0.143766 -0.412543 0.069646 -3.211047 -11.823008 2.280399 25.607259 76.578093 26.088900 0.466325 -11.683924 -3.564338 0.191817 0.594845 0.088445
-44.978404 62.071220 13.454886 176.791361 -52.349638 -0.623898 4.063207 27.150310 0.782296 0.610694 4.675300 0.088214 0.972386 7.400561 0.163127 3.007332 22.007656 0.865458 1.081458 14.883614 2.330311 1.151116 -8.162811 3.967631 6.281036 4.127289 5.612487 4.321868 -18.274187 -16.584037 -82.286481 -68.307368 120.669468 22.675783 11.449074 15.126286 -10.136643 2.202519 -0.768352 -4.275398 -10.224080 16.628712 147.713407 -71.340015 -162.086149 11.921529 -2.842218 31.209143 3.267421 -14.559729 -5.952218 -0.441018 61.317272 -4.244771 1.461633 -8.928297 10.100474 0.141140 -0.405872 0.068481 -3.211613 -11.826247 2.282799 25.599822 76.581417 26.079494 0.470560 -11.684654 -3.560978 0.188869 0.594352 0.086586
-44.979042 62.071069 13.455024 176.792401 -52.347695 -0.624154 4.015871 27.168816 0.736620 0.604595 4.679166 0.082216 0.991102 7.390274 0.172237 2.995424 22.014307 0.847111 1.098291 14.889051 2.321065 1.181141 -8.179159 3.971726 6.225167 4.169061 5.551836 3.874786 -18.112386 -16.367451 -83.192196 -68.456075 121.397392 22.604726 11.395756 14.721719 -10.163334 2.186885 -0.787807 -4.239227 -10.101586 16.653694 147.948660 -71.411000 -162.322477 11.832097 -2.765728 31.029482 3.266415 -14.562324 -5.954847 -0.440000 61.317339 -4.242361 1.461214 -8.921608 10.107973 0.139943 -0.407457 0.061998 -3.224748 -11.829549 2.279247 25.620092 76.583227 26.091466 0.482399 -11.681583 -3.562572 0.180421 0.591031 0.083407
-44.979612 62.071372 13.454842 176.788405 -52.349372 -0.621471 4.007655 27.175649 0.724705 0.594488 4.686930 0.071929 0.984063 7.392995 0.169979 2.997337 22.013953 0.839548 1.110739 14.892871 2.314330 1.205557 -8.163460 3.946415 6.158842 4.214474 5.492945 3.429695 -17.951243 -16.152485 -84.011272 -68.578650 122.056450 22.528148 11.333547 14.339800 -10.186516 2.173571 -0.802184 -4.221464 -9.980542 16.668955 148.208981 -71.487381 -162.587148 11.746083 -2.692089 30.854580 3.267553 -14.561036 -5.955057 -0.452618 61.317011 -4.252338 1.461446 -8.916982 10.113741 0.146698 -0.408475 0.057002 -3.228553 -11.827548 2.277385 25.638112 76.582518 26.106168 0.485361 -11.679876 -3.564436 0.173752 0.590341 0.081781
-44.979324 62.071068 13.455297 176.780174 -52.346305 -0.621561 4.005568 27.177161 0.718725 0.587619 4.696156 0.063518 0.977020 7.394487 0.164654 3.019202 22.002463 0.849881 1.114865 14.894117 2.312137 1.221731 -8.135689 3.911740 6.074855 4.266461 5.435471 2.993747 -17.782391 -15.945318 -84.753973 -68.676069 122.656604 22.440048 11.264860 13.973377 -10.226458 2.168130 -0.823906 -4.207403 -9.862562 16.680141 148.473645 -71.568313 -162.856728 11.655118 -2.611666 30.675704 3.263824 -14.566811 -5.952364 -0.451184 61.316198 -4.248915 1.467753 -8.910088 10.119350 0.151553 -0.411021 0.047886 -3.231668 -11.830559 2.282747 25.650473 76.583555 26.115494 0.487668 -11.679678 -3.562651 0.170692 0.590079 0.077095
-44.978813 62.070662 13.456042 176.771093 -52.341793 -0.623207 4.000294 27.183660 0.706331 0.591002 4.696069 0.067386 0.971243 7.401834 0.155043 3.013515 22.008427 0.837759 1.130193 14.896283 2.304267 1.253440 -8.131977 3.891166 6.017179 4.290738 5.398385 2.569307 -17.601942 -15.749599 -85.430502 -68.750736 123.205476 22.341207 11.198024 13.616870 -10.240834 2.144830 -0.826714 -4.189192 -9.775131 16.692113 148.666109 -71.671358 -163.064468 11.556046 -2.518274 30.487862 3.266453 -14.572847 -5.945586 -0.464131 61.314465 -4.256527 1.473802 -8.906222 10.118601 0.149531 -0.407112 0.052003 -3.233649 -11.834592 2.289409 25.648556 76.585319 26.114996 0.491856 -11.680584 -3.568406 0.170188 0.590897 0.077739
-44.978688 62.070702 13.456634 176.769537 -52.339775 -0.629237 3.976396 27.206168 0.678573 0.614672 4.675063 0.086557 0.939643 7.436784 0.126538 2.998941 22.019591 0.814099 1.177640 14.874290 2.310288 1.291690 -8.129842 3.867586 5.999627 4.282888 5.374950 2.149447 -17.410447 -15.566401 -86.040348 -68.804375 123.700369 22.235902 11.137176 13.268466 -10.221165 2.097502 -0.811689 -4.186709 -9.666974 16.695790 148.911572 -71.765695 -163.308939 11.450848 -2.409713 30.294509 3.256022 -14.575049 -5.944848 -0.469570 61.309915 -4.254902 1.485628 -8.905086 10.110968 0.153177 -0.404154 0.051233 -3.236260 -11.836062 2.295336 25.632925 76.586947 26.102278 0.493136 -11.681451 -3.571731 0.171461 0.591989 0.078569
-44.979155 62.070367 13.457679 176.763063 -52.334073 -0.628673 3.972933 27.208612 0.671550 0.608712 4.681926 0.079566 0.942105 7.438555 0.123432 2.994100 22.023692 0.802194 1.193986 14.879016 2.305153 1.329015 -8.126048 3.845318 5.973797 4.290922 5.358773 1.721217 -17.199416 -15.402302 -86.598935 -68.843272 124.154576 22.120668 11.087098 12.928985 -10.231451 2.077429 -0.808965 -4.198485 -9.539760 16.689381 149.205690 -71.849943 -163.589163 11.343159 -2.283764 30.094794 3.247389 -14.580514 -5.940254 -0.457152 61.305382 -4.247617 1.469993 -8.908018 10.120360 0.158899 -0.394237 0.043210 -3.241400 -11.841789 2.295944 25.637613 76.587429 26.107610 0.495277 -11.681307 -3.578754 0.171825 0.591971 0.080380
